<mxfile host="app.diagrams.net" modified="2020-08-13T08:25:33.626Z" agent="5.0 (Macintosh; Intel Mac OS X 10_15_6) AppleWebKit/537.36 (KHTML, like Gecko) Chrome/79.0.3945.130 Safari/537.36" etag="S2yZPqTL4XhnCZb6gUgo" version="13.6.2" type="github">
  <diagram id="L6cxLrnY_hdndAqy4wZ_" name="Page-1">
    <mxGraphModel dx="946" dy="613" grid="1" gridSize="10" guides="1" tooltips="1" connect="1" arrows="1" fold="1" page="1" pageScale="1" pageWidth="827" pageHeight="1169" math="0" shadow="0">
      <root>
        <mxCell id="0" />
        <mxCell id="1" parent="0" />
        <mxCell id="Vtf-HRarqf67E7Ic01vR-2" value="构建" style="edgeStyle=orthogonalEdgeStyle;rounded=0;orthogonalLoop=1;jettySize=auto;html=1;" edge="1" parent="1" source="Vtf-HRarqf67E7Ic01vR-1">
          <mxGeometry relative="1" as="geometry">
            <mxPoint x="320" y="240" as="targetPoint" />
          </mxGeometry>
        </mxCell>
        <mxCell id="Vtf-HRarqf67E7Ic01vR-1" value="写入内存管理类" style="rounded=0;whiteSpace=wrap;html=1;" vertex="1" parent="1">
          <mxGeometry x="130" y="210" width="120" height="60" as="geometry" />
        </mxCell>
        <mxCell id="Vtf-HRarqf67E7Ic01vR-6" value="析构" style="edgeStyle=orthogonalEdgeStyle;rounded=0;orthogonalLoop=1;jettySize=auto;html=1;" edge="1" parent="1" source="Vtf-HRarqf67E7Ic01vR-3" target="Vtf-HRarqf67E7Ic01vR-5">
          <mxGeometry relative="1" as="geometry" />
        </mxCell>
        <mxCell id="Vtf-HRarqf67E7Ic01vR-3" value="1. 创建内存映射文件&lt;br&gt;2. 映射共享内存&amp;amp;写入数据" style="rounded=0;whiteSpace=wrap;html=1;" vertex="1" parent="1">
          <mxGeometry x="320" y="210" width="160" height="60" as="geometry" />
        </mxCell>
        <mxCell id="Vtf-HRarqf67E7Ic01vR-5" value="释放共享内存" style="whiteSpace=wrap;html=1;rounded=0;" vertex="1" parent="1">
          <mxGeometry x="560" y="210" width="140" height="60" as="geometry" />
        </mxCell>
        <mxCell id="Vtf-HRarqf67E7Ic01vR-7" value="构建" style="edgeStyle=orthogonalEdgeStyle;rounded=0;orthogonalLoop=1;jettySize=auto;html=1;" edge="1" source="Vtf-HRarqf67E7Ic01vR-8" parent="1">
          <mxGeometry relative="1" as="geometry">
            <mxPoint x="320" y="350" as="targetPoint" />
          </mxGeometry>
        </mxCell>
        <mxCell id="Vtf-HRarqf67E7Ic01vR-8" value="读取内存管理类" style="rounded=0;whiteSpace=wrap;html=1;" vertex="1" parent="1">
          <mxGeometry x="130" y="320" width="120" height="60" as="geometry" />
        </mxCell>
        <mxCell id="Vtf-HRarqf67E7Ic01vR-9" value="析构" style="edgeStyle=orthogonalEdgeStyle;rounded=0;orthogonalLoop=1;jettySize=auto;html=1;" edge="1" source="Vtf-HRarqf67E7Ic01vR-10" target="Vtf-HRarqf67E7Ic01vR-11" parent="1">
          <mxGeometry relative="1" as="geometry" />
        </mxCell>
        <mxCell id="Vtf-HRarqf67E7Ic01vR-10" value="1. 打开内存映射文件&lt;br&gt;2. 重建共享内存数据" style="rounded=0;whiteSpace=wrap;html=1;" vertex="1" parent="1">
          <mxGeometry x="320" y="320" width="160" height="60" as="geometry" />
        </mxCell>
        <mxCell id="Vtf-HRarqf67E7Ic01vR-11" value="1. 释放共享内存&lt;br&gt;2. 清理内存映射文件" style="whiteSpace=wrap;html=1;rounded=0;" vertex="1" parent="1">
          <mxGeometry x="560" y="320" width="140" height="60" as="geometry" />
        </mxCell>
      </root>
    </mxGraphModel>
  </diagram>
</mxfile>
